<mxfile host="Electron" modified="2025-01-01T16:40:34.375Z" agent="Mozilla/5.0 (Windows NT 10.0; Win64; x64) AppleWebKit/537.36 (KHTML, like Gecko) draw.io/24.6.4 Chrome/124.0.6367.207 Electron/30.0.6 Safari/537.36" etag="Ab2Vv2HUqrcnquyGiCgW" version="24.6.4" type="device">
  <diagram name="Strona-1" id="cgcSOmLP8pdpwUdQKmBF">
    <mxGraphModel dx="2653" dy="1580" grid="1" gridSize="10" guides="1" tooltips="1" connect="1" arrows="1" fold="1" page="0" pageScale="1" pageWidth="827" pageHeight="1169" math="0" shadow="0">
      <root>
        <mxCell id="0" />
        <mxCell id="1" parent="0" />
        <mxCell id="1-zMfy_QAucfREcjeihT-40" value="User" style="shape=umlActor;verticalLabelPosition=bottom;verticalAlign=top;html=1;outlineConnect=0;" parent="1" vertex="1">
          <mxGeometry x="-150" y="410" width="30" height="60" as="geometry" />
        </mxCell>
        <mxCell id="1-zMfy_QAucfREcjeihT-72" value="" style="endArrow=none;html=1;rounded=0;entryX=0;entryY=0.5;entryDx=0;entryDy=0;" parent="1" edge="1">
          <mxGeometry width="50" height="50" relative="1" as="geometry">
            <mxPoint x="-440" y="-155" as="sourcePoint" />
            <mxPoint x="-275" y="-155" as="targetPoint" />
          </mxGeometry>
        </mxCell>
        <mxCell id="1-zMfy_QAucfREcjeihT-73" value="&amp;lt;&amp;lt;extends&amp;gt;&amp;gt;" style="endArrow=open;startArrow=none;endFill=0;startFill=0;endSize=8;html=1;verticalAlign=bottom;dashed=1;labelBackgroundColor=none;rounded=0;entryX=0.686;entryY=0.986;entryDx=0;entryDy=0;entryPerimeter=0;" parent="1" edge="1">
          <mxGeometry width="160" relative="1" as="geometry">
            <mxPoint x="-280" y="-130" as="sourcePoint" />
            <mxPoint x="-440" y="-130" as="targetPoint" />
          </mxGeometry>
        </mxCell>
        <mxCell id="1-zMfy_QAucfREcjeihT-74" value="&amp;lt;&amp;lt;include&amp;gt;&amp;gt;" style="endArrow=open;startArrow=none;endFill=0;startFill=0;endSize=8;html=1;verticalAlign=bottom;dashed=1;labelBackgroundColor=none;rounded=0;exitX=1;exitY=1;exitDx=0;exitDy=0;" parent="1" edge="1">
          <mxGeometry width="160" relative="1" as="geometry">
            <mxPoint x="-440" y="-110" as="sourcePoint" />
            <mxPoint x="-280" y="-110" as="targetPoint" />
          </mxGeometry>
        </mxCell>
        <mxCell id="1-zMfy_QAucfREcjeihT-75" value="Extends" style="endArrow=block;endSize=16;endFill=0;html=1;rounded=0;exitX=0.5;exitY=0.5;exitDx=0;exitDy=0;exitPerimeter=0;" parent="1" edge="1">
          <mxGeometry width="160" relative="1" as="geometry">
            <mxPoint x="-440" y="-90" as="sourcePoint" />
            <mxPoint x="-280" y="-90" as="targetPoint" />
          </mxGeometry>
        </mxCell>
        <mxCell id="1-zMfy_QAucfREcjeihT-83" value="" style="endArrow=none;html=1;rounded=0;exitX=0.5;exitY=0.5;exitDx=0;exitDy=0;exitPerimeter=0;entryX=0;entryY=0.5;entryDx=0;entryDy=0;" parent="1" source="1-zMfy_QAucfREcjeihT-40" target="gHqimy75VEc8yYDSsLSD-3" edge="1">
          <mxGeometry width="50" height="50" relative="1" as="geometry">
            <mxPoint x="95" y="530" as="sourcePoint" />
            <mxPoint x="130" y="350" as="targetPoint" />
          </mxGeometry>
        </mxCell>
        <mxCell id="gHqimy75VEc8yYDSsLSD-2" value="Captly" style="shape=umlFrame;whiteSpace=wrap;html=1;pointerEvents=0;recursiveResize=0;container=1;collapsible=0;width=160;" vertex="1" parent="1">
          <mxGeometry x="70" y="230" width="330" height="700" as="geometry" />
        </mxCell>
        <mxCell id="gHqimy75VEc8yYDSsLSD-3" value="Translate" style="ellipse;whiteSpace=wrap;html=1;" vertex="1" parent="1">
          <mxGeometry x="160" y="300" width="140" height="70" as="geometry" />
        </mxCell>
        <mxCell id="gHqimy75VEc8yYDSsLSD-4" value="Pause" style="ellipse;whiteSpace=wrap;html=1;" vertex="1" parent="1">
          <mxGeometry x="160" y="430" width="140" height="70" as="geometry" />
        </mxCell>
        <mxCell id="gHqimy75VEc8yYDSsLSD-5" value="Continue" style="ellipse;whiteSpace=wrap;html=1;" vertex="1" parent="1">
          <mxGeometry x="160" y="550" width="140" height="70" as="geometry" />
        </mxCell>
        <mxCell id="gHqimy75VEc8yYDSsLSD-6" value="Remove" style="ellipse;whiteSpace=wrap;html=1;" vertex="1" parent="1">
          <mxGeometry x="160" y="670" width="140" height="70" as="geometry" />
        </mxCell>
        <mxCell id="gHqimy75VEc8yYDSsLSD-7" value="Retry" style="ellipse;whiteSpace=wrap;html=1;" vertex="1" parent="1">
          <mxGeometry x="160" y="790" width="140" height="70" as="geometry" />
        </mxCell>
        <mxCell id="gHqimy75VEc8yYDSsLSD-8" value="" style="endArrow=none;html=1;rounded=0;entryX=0;entryY=0.5;entryDx=0;entryDy=0;" edge="1" parent="1" target="gHqimy75VEc8yYDSsLSD-4">
          <mxGeometry width="50" height="50" relative="1" as="geometry">
            <mxPoint x="-130" y="440" as="sourcePoint" />
            <mxPoint x="170" y="345" as="targetPoint" />
          </mxGeometry>
        </mxCell>
        <mxCell id="gHqimy75VEc8yYDSsLSD-9" value="" style="endArrow=none;html=1;rounded=0;" edge="1" parent="1" target="gHqimy75VEc8yYDSsLSD-5">
          <mxGeometry width="50" height="50" relative="1" as="geometry">
            <mxPoint x="-120" y="450" as="sourcePoint" />
            <mxPoint x="170" y="475" as="targetPoint" />
          </mxGeometry>
        </mxCell>
        <mxCell id="gHqimy75VEc8yYDSsLSD-10" value="" style="endArrow=none;html=1;rounded=0;entryX=0;entryY=0.5;entryDx=0;entryDy=0;" edge="1" parent="1" source="1-zMfy_QAucfREcjeihT-40" target="gHqimy75VEc8yYDSsLSD-6">
          <mxGeometry width="50" height="50" relative="1" as="geometry">
            <mxPoint x="-110" y="460" as="sourcePoint" />
            <mxPoint x="168" y="587" as="targetPoint" />
          </mxGeometry>
        </mxCell>
        <mxCell id="gHqimy75VEc8yYDSsLSD-11" value="" style="endArrow=none;html=1;rounded=0;entryX=0.021;entryY=0.3;entryDx=0;entryDy=0;entryPerimeter=0;" edge="1" parent="1" source="1-zMfy_QAucfREcjeihT-40" target="gHqimy75VEc8yYDSsLSD-7">
          <mxGeometry width="50" height="50" relative="1" as="geometry">
            <mxPoint x="-110" y="463" as="sourcePoint" />
            <mxPoint x="170" y="715" as="targetPoint" />
          </mxGeometry>
        </mxCell>
      </root>
    </mxGraphModel>
  </diagram>
</mxfile>
